<mxfile host="app.diagrams.net" agent="Mozilla/5.0 (Windows NT 10.0; Win64; x64) AppleWebKit/537.36 (KHTML, like Gecko) Chrome/137.0.0.0 Safari/537.36 Edg/137.0.0.0" version="27.1.3">
  <diagram name="第 1 页" id="SNnUAwdkBXaZDfroSAXm">
    <mxGraphModel dx="1546" dy="836" grid="1" gridSize="10" guides="1" tooltips="1" connect="1" arrows="1" fold="1" page="1" pageScale="1" pageWidth="1200" pageHeight="1920" math="0" shadow="0">
      <root>
        <mxCell id="0" />
        <mxCell id="1" parent="0" />
        <mxCell id="qFn1gYB5s_-sQzseoCl5-35" style="rounded=0;orthogonalLoop=1;jettySize=auto;html=1;endArrow=none;startFill=0;fontFamily=宋体;fontSize=16;" parent="1" source="qFn1gYB5s_-sQzseoCl5-1" target="qFn1gYB5s_-sQzseoCl5-14" edge="1">
          <mxGeometry relative="1" as="geometry" />
        </mxCell>
        <mxCell id="qFn1gYB5s_-sQzseoCl5-36" style="rounded=0;orthogonalLoop=1;jettySize=auto;html=1;endArrow=none;startFill=0;fontFamily=宋体;fontSize=16;" parent="1" source="qFn1gYB5s_-sQzseoCl5-1" target="qFn1gYB5s_-sQzseoCl5-15" edge="1">
          <mxGeometry relative="1" as="geometry" />
        </mxCell>
        <mxCell id="qFn1gYB5s_-sQzseoCl5-37" style="rounded=0;orthogonalLoop=1;jettySize=auto;html=1;endArrow=none;startFill=0;fontFamily=宋体;fontSize=16;" parent="1" source="qFn1gYB5s_-sQzseoCl5-1" target="qFn1gYB5s_-sQzseoCl5-16" edge="1">
          <mxGeometry relative="1" as="geometry" />
        </mxCell>
        <mxCell id="qFn1gYB5s_-sQzseoCl5-38" style="rounded=0;orthogonalLoop=1;jettySize=auto;html=1;endArrow=none;startFill=0;fontFamily=宋体;fontSize=16;" parent="1" source="qFn1gYB5s_-sQzseoCl5-1" target="qFn1gYB5s_-sQzseoCl5-17" edge="1">
          <mxGeometry relative="1" as="geometry" />
        </mxCell>
        <mxCell id="qFn1gYB5s_-sQzseoCl5-39" style="rounded=0;orthogonalLoop=1;jettySize=auto;html=1;endArrow=none;startFill=0;fontFamily=宋体;fontSize=16;" parent="1" source="qFn1gYB5s_-sQzseoCl5-1" target="qFn1gYB5s_-sQzseoCl5-18" edge="1">
          <mxGeometry relative="1" as="geometry" />
        </mxCell>
        <mxCell id="qFn1gYB5s_-sQzseoCl5-43" style="rounded=0;orthogonalLoop=1;jettySize=auto;html=1;endArrow=none;startFill=0;fontFamily=宋体;fontSize=16;" parent="1" source="qFn1gYB5s_-sQzseoCl5-1" target="qFn1gYB5s_-sQzseoCl5-3" edge="1">
          <mxGeometry relative="1" as="geometry" />
        </mxCell>
        <mxCell id="qFn1gYB5s_-sQzseoCl5-45" style="rounded=0;orthogonalLoop=1;jettySize=auto;html=1;endArrow=none;startFill=0;fontFamily=宋体;fontSize=16;" parent="1" source="qFn1gYB5s_-sQzseoCl5-1" target="qFn1gYB5s_-sQzseoCl5-2" edge="1">
          <mxGeometry relative="1" as="geometry" />
        </mxCell>
        <mxCell id="qFn1gYB5s_-sQzseoCl5-46" style="rounded=0;orthogonalLoop=1;jettySize=auto;html=1;endArrow=none;startFill=0;fontFamily=宋体;fontSize=16;" parent="1" source="qFn1gYB5s_-sQzseoCl5-1" target="qFn1gYB5s_-sQzseoCl5-21" edge="1">
          <mxGeometry relative="1" as="geometry" />
        </mxCell>
        <mxCell id="qFn1gYB5s_-sQzseoCl5-47" style="rounded=0;orthogonalLoop=1;jettySize=auto;html=1;endArrow=none;startFill=0;fontFamily=宋体;fontSize=16;" parent="1" source="qFn1gYB5s_-sQzseoCl5-1" target="qFn1gYB5s_-sQzseoCl5-18" edge="1">
          <mxGeometry relative="1" as="geometry" />
        </mxCell>
        <mxCell id="qFn1gYB5s_-sQzseoCl5-49" style="rounded=0;orthogonalLoop=1;jettySize=auto;html=1;endArrow=none;startFill=0;fontFamily=宋体;fontSize=16;" parent="1" source="qFn1gYB5s_-sQzseoCl5-1" target="qFn1gYB5s_-sQzseoCl5-23" edge="1">
          <mxGeometry relative="1" as="geometry" />
        </mxCell>
        <mxCell id="qFn1gYB5s_-sQzseoCl5-1" value="违章登记" style="rounded=0;whiteSpace=wrap;html=1;fontFamily=宋体;fontSize=16;" parent="1" vertex="1">
          <mxGeometry x="540" y="360" width="110" height="60" as="geometry" />
        </mxCell>
        <mxCell id="qFn1gYB5s_-sQzseoCl5-2" value="&lt;p class=&quot;MsoNormal&quot;&gt;&lt;span style=&quot;font-size: 12pt;&quot;&gt;违章情况&lt;/span&gt;&lt;/p&gt;" style="ellipse;whiteSpace=wrap;html=1;fontFamily=宋体;fontSize=16;" parent="1" vertex="1">
          <mxGeometry x="400" y="360" width="90" height="50" as="geometry" />
        </mxCell>
        <mxCell id="qFn1gYB5s_-sQzseoCl5-3" value="&lt;p class=&quot;MsoNormal&quot;&gt;&lt;span style=&quot;font-size: 12pt;&quot;&gt;&lt;font face=&quot;宋体&quot;&gt;违章&lt;/font&gt; &lt;font face=&quot;宋体&quot;&gt;ID&lt;/font&gt;&lt;/span&gt;&lt;/p&gt;" style="ellipse;whiteSpace=wrap;html=1;fontFamily=宋体;fontSize=16;" parent="1" vertex="1">
          <mxGeometry x="550" y="250" width="90" height="50" as="geometry" />
        </mxCell>
        <mxCell id="qFn1gYB5s_-sQzseoCl5-14" value="&lt;p class=&quot;MsoNormal&quot;&gt;&lt;span style=&quot;font-size: 12pt;&quot;&gt;创建时间&lt;/span&gt;&lt;/p&gt;" style="ellipse;whiteSpace=wrap;html=1;fontFamily=宋体;fontSize=16;" parent="1" vertex="1">
          <mxGeometry x="660" y="270" width="90" height="50" as="geometry" />
        </mxCell>
        <mxCell id="qFn1gYB5s_-sQzseoCl5-15" value="&lt;p class=&quot;MsoNormal&quot;&gt;&lt;span style=&quot;font-size: 12pt;&quot;&gt;账号&lt;/span&gt;&lt;/p&gt;" style="ellipse;whiteSpace=wrap;html=1;fontFamily=宋体;fontSize=16;" parent="1" vertex="1">
          <mxGeometry x="690" y="350" width="90" height="50" as="geometry" />
        </mxCell>
        <mxCell id="qFn1gYB5s_-sQzseoCl5-16" value="&lt;p class=&quot;MsoNormal&quot;&gt;&lt;span style=&quot;font-size: 12pt;&quot;&gt;姓名&lt;/span&gt;&lt;/p&gt;" style="ellipse;whiteSpace=wrap;html=1;fontFamily=宋体;fontSize=16;" parent="1" vertex="1">
          <mxGeometry x="690" y="420" width="90" height="50" as="geometry" />
        </mxCell>
        <mxCell id="qFn1gYB5s_-sQzseoCl5-17" value="&lt;p class=&quot;MsoNormal&quot;&gt;&lt;span style=&quot;font-size: 12pt;&quot;&gt;违规照片&lt;/span&gt;&lt;/p&gt;" style="ellipse;whiteSpace=wrap;html=1;fontFamily=宋体;fontSize=16;" parent="1" vertex="1">
          <mxGeometry x="630" y="480" width="90" height="50" as="geometry" />
        </mxCell>
        <mxCell id="qFn1gYB5s_-sQzseoCl5-18" value="&lt;p class=&quot;MsoNormal&quot;&gt;&lt;span style=&quot;font-size: 12pt;&quot;&gt;违章日期&lt;/span&gt;&lt;/p&gt;" style="ellipse;whiteSpace=wrap;html=1;fontFamily=宋体;fontSize=16;" parent="1" vertex="1">
          <mxGeometry x="530" y="490" width="90" height="50" as="geometry" />
        </mxCell>
        <mxCell id="qFn1gYB5s_-sQzseoCl5-21" value="&lt;p class=&quot;MsoNormal&quot;&gt;&lt;span style=&quot;font-size: 12pt;&quot;&gt;罚款金额&lt;/span&gt;&lt;/p&gt;" style="ellipse;whiteSpace=wrap;html=1;fontFamily=宋体;fontSize=16;" parent="1" vertex="1">
          <mxGeometry x="440" y="440" width="90" height="50" as="geometry" />
        </mxCell>
        <mxCell id="qFn1gYB5s_-sQzseoCl5-23" value="&lt;p class=&quot;MsoNormal&quot;&gt;&lt;span style=&quot;font-size: 12pt;&quot;&gt;是否支付&lt;/span&gt;&lt;/p&gt;" style="ellipse;whiteSpace=wrap;html=1;fontFamily=宋体;fontSize=16;" parent="1" vertex="1">
          <mxGeometry x="450" y="270" width="90" height="50" as="geometry" />
        </mxCell>
      </root>
    </mxGraphModel>
  </diagram>
</mxfile>
